<svg xmlns="http://www.w3.org/2000/svg" version="1.1" xmlns:xlink="http://www.w3.org/1999/xlink" xmlns:svgjs="http://svgjs.com/svgjs" width="1440" height="800" preserveAspectRatio="none" viewBox="0 0 1440 800">
    <g mask="url(&quot;#SvgjsMask1012&quot;)" fill="none">
        <rect width="1440" height="800" x="0" y="0" fill="#0e2a47"></rect>
        <path d="M0,500.51C125.76,511.001,249.317,618.528,364.799,567.639C479.256,517.202,531.726,377.06,557.765,254.723C581.256,144.359,506.244,40.686,500.95,-72.026C494.834,-202.235,586.153,-339.616,524.455,-454.443C462.207,-570.293,317.89,-616.02,190.694,-649.444C65.913,-682.233,-68.268,-688.718,-188.441,-641.772C-303.825,-596.697,-375.867,-489.601,-457.34,-396.288C-539.134,-302.607,-659.168,-219.865,-665.269,-95.651C-671.353,28.226,-548.138,114.417,-487.743,222.745C-433.281,320.431,-424.863,454.526,-327.676,509.873C-230.761,565.065,-111.143,491.239,0,500.51" fill="#0b2239"></path>
        <path d="M1440 1461.942C1561.08 1447.896 1633.497 1326.147 1731.94 1254.268 1823.266 1187.585 1956.848 1160.138 1997.733 1054.708 2038.551 949.45 1939.387 841.559 1935.7440000000001 728.723 1931.421 594.8 2060.6620000000003 439.469 1974.557 336.804 1888.972 234.75800000000004 1716.8690000000001 319.327 1584.055 309.393 1483.602 301.88 1389.446 278.803 1288.936 285.524 1163.153 293.934 1007.74 258.64 924.69 353.481 841.718 448.234 922.767 598.395 905.697 723.179 888.795 846.733 786.845 962.109 825.201 1080.769 863.924 1200.564 994.023 1261.117 1101.024 1327.4569999999999 1206.474 1392.836 1316.753 1476.239 1440 1461.942" fill="#F5F7FB"></path>
    </g>
    <defs>
        <mask id="SvgjsMask1012">
            <rect width="1440" height="800" fill="#ffffff"></rect>
        </mask>
    </defs>
</svg>